{"title":"The Finest Hours(2016)MPEG-4[DaScubaDude]","uid":15167037,"size":1287250812,"categoryP":"video","categoryS":"movies","magnet":"?xt=urn:btih:59d94bc4a6ec8c3418fe4d9cfcf88f977c985fcd&amp;dn=The+Finest+Hours%282016%29MPEG-4%5BDaScubaDude%5D&amp;tr=udp%3A%2F%2Ftracker.leechers-paradise.org%3A6969&amp;tr=udp%3A%2F%2Fzer0day.ch%3A1337&amp;tr=udp%3A%2F%2Fopen.demonii.com%3A1337&amp;tr=udp%3A%2F%2Ftracker.coppersurfer.tk%3A6969&amp;tr=udp%3A%2F%2Fexodus.desync.com%3A6969","seeders":0,"leechers":3,"uploader":"dascuba","files":1,"time":1467355584,"description":"The Finest Hours (2016)\r\nPG-13  |  117 min  |  Action, Drama, History  |  29 January 2016 (USA)\r\n6.8 Your rating:   -/10   Ratings: 6.8/10 from 23,694 users   Metascore: 58/100 \r\nReviews: 106 user | 175 critic | 39 from Metacritic.com\r\nThe Coast Guard makes a daring rescue attempt off the coast of Cape Cod after a pair of oil tankers are destroyed during a blizzard in 1952.\r\n\r\nDirector: Craig Gillespie\r\nWriters: Scott Silver (screenplay), Paul Tamasy (screenplay),\r\nStars: Chris Pine, Casey Affleck, Ben Foster \r\n\r\nGeneral\r\nComplete name                            : The FinestHoursTHE_FINEST_HOURS_Title20.mp4\r\nFormat                                   : MPEG-4\r\nFormat profile                           : Base Media\r\nCodec ID                                 : isom (isom/iso2/avc1/mp41)\r\nFile size                                : 1.20 GiB\r\nDuration                                 : 1h 57mn\r\nOverall bit rate                         : 1 464 Kbps\r\nMovie name                               : THE_FINEST_HOURS\r\nGenre                                    : Thriller\r\nWriting application                      : Lavf54.6.100\r\n\r\nVideo\r\nID                                       : 1\r\nFormat                                   : AVC\r\nFormat/Info                              : Advanced Video Codec\r\nFormat profile                           :   \r\nFormat settings, CABAC                   : No\r\nFormat settings, ReFrames                : 6 frames\r\nCodec ID                                 : avc1\r\nCodec ID/Info                            : Advanced Video Coding\r\nDuration                                 : 1h 57mn\r\nBit rate                                 : 1 204 Kbps\r\nWidth                                    : 720 pixels\r\nHeight                                   : 404 pixels\r\nDisplay aspect ratio                     : 16:9\r\nFrame rate mode                          : Constant\r\nFrame rate                               : 29.970 (30000/1001) fps\r\nColor space                              : YUV\r\nChroma subsampling                       : 4:2:0\r\nBit depth                                : 8 bits\r\nScan type                                : Progressive\r\nBits/(Pixel*Frame)                       : 0.138\r\nStream size                              : 1 009 MiB (82%)\r\n\r\nAudio\r\nID                                       : 2\r\nFormat                                   : AAC\r\nFormat/Info                              : Advanced Audio Codec\r\nFormat profile                           : LC\r\nCodec ID                                 : 40\r\nDuration                                 : 1h 57mn\r\nBit rate mode                            : Constant\r\nBit rate                                 : 254 Kbps\r\nChannel(s)                               : 2 channels\r\nChannel(s)_Original                      : 6 channels\r\nChannel positions                        : Front: L C R, Side: L R, LFE\r\nSampling rate                            : 44.1 KHz\r\nFrame rate                               : 43.066 fps (1024 spf)\r\nCompression mode                         : Lossy\r\nStream size                              : 213 MiB (17%)\r\nDefault                                  : Yes\r\nAlternate group                          : 1","torrent":{"xt":"urn:btih:59d94bc4a6ec8c3418fe4d9cfcf88f977c985fcd","amp;dn":"The+Finest+Hours%282016%29MPEG-4%5BDaScubaDude%5D","amp;tr":["udp%3A%2F%2Ftracker.leechers-paradise.org%3A6969","udp%3A%2F%2Fzer0day.ch%3A1337","udp%3A%2F%2Fopen.demonii.com%3A1337","udp%3A%2F%2Ftracker.coppersurfer.tk%3A6969","udp%3A%2F%2Fexodus.desync.com%3A6969"],"infoHash":"59d94bc4a6ec8c3418fe4d9cfcf88f977c985fcd","infoHashBuffer":{"type":"Buffer","data":[89,217,75,196,166,236,140,52,24,254,77,156,252,248,143,151,124,152,95,205]},"announce":[],"urlList":[]}}